<?xml version="1.0" encoding="utf-8"?>
<!-- Generator: Adobe Illustrator 25.1.0, SVG Export Plug-In . SVG Version: 6.00 Build 0)  -->
<svg version="1.1" id="Layer_1" xmlns="http://www.w3.org/2000/svg" xmlns:xlink="http://www.w3.org/1999/xlink" x="0px" y="0px"
	 viewBox="0 150 1107.5 324.22" style="enable-background:new 0 150 1107.5 324.22;" xml:space="preserve">
<style type="text/css">
	.st0{fill:#21D789;}
	.st1{fill:#FFFFFF;}
</style>
<g>
	<g>
		<rect width="1107" height="574.22"/>
	</g>
	<g>
		<polygon class="st0" points="963.87,392.03 492.01,392.03 492.01,241.7 447.73,241.7 447.73,-0.1 963.87,-0.1 		"/>
	</g>
	<g>
		<g>
			<polygon class="st1" points="397.56,243.47 396.56,243.47 396.56,111.96 917.24,111.96 917.24,112.96 397.56,112.96 			"/>
		</g>
	</g>
	<g>
		<g>
			<polygon class="st1" points="597.65,231.94 565.71,263.88 597.65,297.7 625.83,297.7 592.33,263.73 625.83,231.94 			"/>
		</g>
		<g>
			<polygon class="st1" points="718.05,231.94 749.99,263.88 718.05,297.7 689.87,297.7 723.38,263.73 689.87,231.94 			"/>
		</g>
		<g>
			<polygon class="st1" points="657.15,231.94 638.01,297.7 659.08,297.7 678.22,231.94 			"/>
		</g>
	</g>
	<g>
		<polygon class="st0" points="492.01,574.22 0,574.22 0,301.4 59.12,301.4 59.12,514.51 492.01,514.51 		"/>
	</g>
	<g>
		<rect x="59.32" y="197.15" class="st1" width="432.69" height="52.12"/>
	</g>
	<g>
		<rect x="396.71" y="51.84" class="st1" width="522.28" height="93.21"/>
	</g>
	<g>
		<g>
			<rect x="517.93" y="513.99" class="st1" width="277.23" height="1"/>
		</g>
		<g>
			<rect x="517.93" y="466.28" class="st1" width="275.4" height="1"/>
		</g>
	</g>
	<g>
		<g>
			<path class="st1" d="M964.04,573.72c-79.1,0-143.46-64.36-143.46-143.46S884.94,286.8,964.04,286.8s143.46,64.36,143.46,143.46
				S1043.14,573.72,964.04,573.72z M964.04,287.8c-78.55,0-142.46,63.91-142.46,142.46s63.91,142.46,142.46,142.46
				s142.46-63.91,142.46-142.46S1042.59,287.8,964.04,287.8z"/>
		</g>
		<g>
			<path class="st1" d="M964.04,468.97c-21.34,0-38.71-17.37-38.71-38.71s17.37-38.71,38.71-38.71s38.71,17.37,38.71,38.71
				S985.38,468.97,964.04,468.97z M964.04,392.55c-20.79,0-37.71,16.92-37.71,37.71s16.92,37.71,37.71,37.71
				s37.71-16.92,37.71-37.71S984.83,392.55,964.04,392.55z"/>
		</g>
	</g>
	<g>
		<g>
			<path class="st1" d="M964.04,468.47c21.11,0,38.21-17.11,38.21-38.21c0-21.11-17.11-38.21-38.21-38.21V287.3
				c78.95,0,142.96,64.01,142.96,142.96s-64.01,142.96-142.96,142.96V468.47z"/>
		</g>
	</g>
	<g>
		<g>
			<path d="M460.24,112.31c-7.14,0-12.95-5.81-12.95-12.95s5.81-12.95,12.95-12.95s12.95,5.81,12.95,12.95
				S467.38,112.31,460.24,112.31z M460.24,87.41c-6.59,0-11.95,5.36-11.95,11.95s5.36,11.95,11.95,11.95
				c6.59,0,11.95-5.36,11.95-11.95C472.19,92.77,466.83,87.41,460.24,87.41z"/>
		</g>
		<g>
			<path d="M506.85,112.31c-7.14,0-12.95-5.81-12.95-12.95s5.81-12.95,12.95-12.95c7.14,0,12.95,5.81,12.95,12.95
				S513.99,112.31,506.85,112.31z M506.85,87.41c-6.59,0-11.95,5.36-11.95,11.95s5.36,11.95,11.95,11.95
				c6.59,0,11.95-5.36,11.95-11.95C518.8,92.77,513.44,87.41,506.85,87.41z"/>
		</g>
		<g>
			<path d="M553.47,112.31c-7.14,0-12.95-5.81-12.95-12.95s5.81-12.95,12.95-12.95s12.95,5.81,12.95,12.95
				S560.61,112.31,553.47,112.31z M553.47,87.41c-6.59,0-11.95,5.36-11.95,11.95s5.36,11.95,11.95,11.95s11.95-5.36,11.95-11.95
				C565.42,92.77,560.06,87.41,553.47,87.41z"/>
		</g>
	</g>
	<g>
		<g>
			<circle class="st1" cx="229.71" cy="384.18" r="12.45"/>
		</g>
		<g>
			<circle class="st1" cx="276.33" cy="384.18" r="12.45"/>
		</g>
		<g>
			<circle class="st1" cx="322.94" cy="384.18" r="12.45"/>
		</g>
	</g>
	<g>
		<polygon class="st1" points="491.99,515.01 59.21,515.01 59.21,242.67 60.21,242.67 60.21,514.01 490.99,514.01 490.99,241.85 
			491.99,241.85 		"/>
	</g>
</g>
</svg>
